<svg width="25" height="25" viewBox="0 0 25 25" fill="none" xmlns="http://www.w3.org/2000/svg">
<path d="M10.516 1.6208C11.4153 0.126399 13.5819 0.126399 14.4812 1.6208L16.9945 5.79705C17.3176 6.33392 17.8446 6.7168 18.455 6.85818L23.2035 7.95794C24.9027 8.35148 25.5722 10.412 24.4289 11.7291L21.2337 15.4099C20.8229 15.8831 20.6216 16.5026 20.6758 17.1269L21.0972 21.9828C21.248 23.7204 19.4952 24.9939 17.8893 24.3135L13.4012 22.4122C12.8243 22.1677 12.1729 22.1677 11.5959 22.4122L7.10789 24.3135C5.50191 24.9939 3.74913 23.7204 3.89993 21.9828L4.32137 17.1269C4.37554 16.5026 4.17425 15.8831 3.7635 15.4099L0.568302 11.7291C-0.575047 10.412 0.094455 8.35148 1.79363 7.95794L6.54213 6.85818C7.15256 6.7168 7.67956 6.33392 8.00265 5.79705L10.516 1.6208Z" fill="white"/>
</svg>
