<svg width="232" height="82" viewBox="0 0 232 82" fill="none" xmlns="http://www.w3.org/2000/svg">
<g filter="url(#filter0_dd_18_50)">
<path d="M40.5515 49.1694V60.562C40.5515 61.2016 40.0502 61.7504 39.4106 61.7627C38.7711 61.7751 38.2264 61.249 38.2264 60.6012V49.5676C38.2264 49.4871 38.2842 49.417 38.3646 49.4004L40.3473 49.0023C40.4525 48.9816 40.5515 49.0621 40.5515 49.1694Z" fill="white"/>
<path d="M39.3879 42.3157C38.7463 42.3157 38.2243 41.7958 38.2243 41.1521V38.373C38.2243 37.7314 38.7442 37.2094 39.3879 37.2094C40.0316 37.2094 40.5515 37.7293 40.5515 38.373V41.1521C40.5515 41.7937 40.0316 42.3157 39.3879 42.3157Z" fill="white"/>
<path d="M17.1639 61.7627C17.071 61.7627 16.9761 61.7524 16.8812 61.7277C16.2582 61.5709 15.8786 60.9416 16.0353 60.3186L21.2695 39.3819C18.2594 38.7134 16.0003 36.0252 16.0003 32.817C16.0003 32.1754 16.5202 31.6534 17.1639 31.6534H24.8202C25.4618 31.6534 25.9838 32.1733 25.9838 32.817C25.9838 33.4607 25.4639 33.9806 24.8202 33.9806H18.4822C18.9939 35.8416 20.7001 37.2115 22.7199 37.2115C23.0789 37.2115 23.4152 37.3765 23.6359 37.6592C23.8567 37.9418 23.9351 38.3091 23.8484 38.6577L18.2924 60.8818C18.1604 61.4099 17.6859 61.7627 17.1659 61.7627H17.1639Z" fill="white"/>
<path d="M32.3588 26.8876C31.9215 27.3188 31.3747 27.6406 30.764 27.8077C30.6856 27.8283 30.6031 27.7891 30.5701 27.7149C30.2978 27.0856 30.1472 26.3903 30.1472 25.6621V18.7526C30.1472 18.1832 30.5928 17.6963 31.1602 17.6839C31.7275 17.6715 32.2144 18.1399 32.2144 18.7176V25.6621C32.2144 26.0293 32.2784 26.3821 32.396 26.7122C32.4166 26.7741 32.4042 26.8422 32.3588 26.8876Z" fill="white"/>
<path d="M36.5119 13.1615V24.2736C36.5119 25.1256 36.3489 25.9736 36.0333 26.7638C35.7156 27.556 35.2452 28.2864 34.6551 28.9053C34.1208 29.4644 33.4915 29.9307 32.8004 30.2793C31.9854 30.692 31.0838 30.9292 30.1719 30.9808C30.0461 30.987 29.9182 30.9911 29.7923 30.9911C26.0869 30.9911 23.0748 27.9769 23.0748 24.2715V13.1615C23.0748 12.5199 23.5947 12 24.2363 12C24.8779 12 25.3999 12.5199 25.3999 13.1615V24.2736C25.3999 24.9462 25.5567 25.6167 25.8559 26.2212C26.155 26.8257 26.5697 27.3249 27.0834 27.7293C27.5971 28.1337 28.2161 28.4267 28.8618 28.5669C29.7387 28.7568 30.6691 28.6701 31.4944 28.3235C32.2289 28.014 32.8767 27.4982 33.3471 26.8545C33.834 26.1861 34.1249 25.3835 34.1765 24.5583C34.1827 24.4634 34.1847 24.3685 34.1847 24.2736V13.1615C34.1868 12.5199 34.7067 12 35.3504 12C35.9941 12 36.5119 12.5199 36.5119 13.1615Z" fill="white"/>
<path d="M40.5515 18.7176V25.5837C40.5515 28.4555 38.2016 30.8756 35.3298 30.8653C34.8944 30.8653 34.4715 30.8075 34.0692 30.7044C33.931 30.6693 33.8979 30.4898 34.0155 30.4093C34.651 29.9719 35.2142 29.4376 35.6867 28.8269C35.7135 28.7939 35.7506 28.7712 35.794 28.765C37.3145 28.5504 38.4863 27.2404 38.4863 25.6621V18.7526C38.4863 18.1832 38.932 17.6963 39.4993 17.6839C40.0791 17.6736 40.5536 18.1399 40.5536 18.7176H40.5515Z" fill="white"/>
<path d="M57.2196 41.1521C57.2196 43.3142 55.6805 45.1917 53.5596 45.6146L28.5029 50.626C28.4265 50.6425 28.3502 50.6486 28.2738 50.6486C27.7312 50.6486 27.2464 50.267 27.135 49.7141C27.0091 49.0848 27.4176 48.472 28.0469 48.3462L40.6217 45.8312L53.1057 43.3348C54.1414 43.1265 54.8944 42.2084 54.8944 41.1521C54.8944 40.0957 54.1414 39.1776 53.1057 38.9693L28.049 33.9579C27.4197 33.8321 27.0112 33.2193 27.1371 32.5901C27.2629 31.9608 27.8757 31.5523 28.5049 31.6782L53.5617 36.6895C55.6826 37.1124 57.2216 38.9899 57.2216 41.1521H57.2196Z" fill="white"/>
<path d="M76.3675 42.4559V60.4485C76.3675 61.1892 75.7671 61.7896 75.0265 61.7896C74.2858 61.7896 73.6854 61.1892 73.6854 60.4485V52.8273H68.4637V60.4485C68.4637 61.1892 67.8633 61.7896 67.1226 61.7896C66.382 61.7896 65.7816 61.1892 65.7816 60.4485V42.4559C65.7816 38.8929 67.6157 36.6709 71.0735 36.6709C74.5313 36.6709 76.3655 38.8929 76.3655 42.4559H76.3675ZM73.6854 50.3577V42.914C73.6854 40.267 72.7674 39.2086 71.0756 39.2086C69.3838 39.2086 68.4637 40.267 68.4637 42.914V50.3577H73.6854Z" fill="white"/>
<path d="M80.9539 56.215V38.2224C80.9539 37.4817 81.5542 36.8814 82.2949 36.8814C83.0356 36.8814 83.6359 37.4817 83.6359 38.2224V55.757C83.6359 58.404 84.554 59.4623 86.2479 59.4623C87.9417 59.4623 88.8577 58.404 88.8577 55.757V38.2224C88.8577 37.4817 89.4581 36.8814 90.1988 36.8814C90.9394 36.8814 91.5398 37.4817 91.5398 38.2224V56.215C91.5398 59.778 89.7057 62 86.2479 62C82.79 62 80.9559 59.778 80.9559 56.215H80.9539Z" fill="white"/>
<path d="M111.754 43.6196V48.2059C111.754 52.4745 109.708 54.8038 106.18 54.8038H104.133V60.4485C104.133 61.1892 103.533 61.7896 102.792 61.7896C102.051 61.7896 101.451 61.1892 101.451 60.4485V39.1384C101.451 37.6571 102.087 37.0217 103.603 37.0217H106.178C109.706 37.0217 111.752 39.3509 111.752 43.6196H111.754ZM109.072 44.1849C109.072 41.0097 108.191 39.4933 105.932 39.4933H104.133V52.3363H105.932C108.189 52.3363 109.072 50.8199 109.072 47.6447V44.1869V44.1849Z" fill="white"/>
<path d="M115.563 56.215V42.5962C115.563 39.0332 117.397 36.8112 120.855 36.8112C124.313 36.8112 126.147 39.0332 126.147 42.5962V56.215C126.147 59.778 124.313 62 120.855 62C117.397 62 115.563 59.778 115.563 56.215ZM123.467 55.757V43.0563C123.467 40.4093 122.549 39.3509 120.857 39.3509C119.165 39.3509 118.247 40.4093 118.247 43.0563V55.757C118.247 58.404 119.165 59.4623 120.857 59.4623C122.549 59.4623 123.467 58.404 123.467 55.757Z" fill="white"/>
<path d="M138.849 50.6053C139.838 51.1706 140.861 52.6169 140.861 54.6986V60.4485C140.861 61.1892 140.261 61.7896 139.52 61.7896C138.779 61.7896 138.179 61.1892 138.179 60.4485V55.4392C138.179 53.4277 137.121 51.8762 135.392 51.8762H133.522V60.4485C133.522 61.1892 132.922 61.7896 132.181 61.7896C131.441 61.7896 130.84 61.1892 130.84 60.4485V39.1384C130.84 37.6571 131.476 37.0217 132.992 37.0217H135.357C138.885 37.0217 140.931 39.3509 140.931 43.6196V45.2783C140.931 47.7128 140.296 49.5119 138.849 50.6053ZM138.319 44.713V44.1849C138.319 41.0097 137.366 39.4933 135.109 39.4933H133.52V49.4066H135.109C137.366 49.4066 138.319 47.8902 138.319 44.7151V44.713Z" fill="white"/>
<path d="M147.81 60.4485V39.4912H144.775C144.069 39.4912 143.469 38.961 143.469 38.2554C143.469 37.5498 144.069 37.0196 144.775 37.0196H153.525C154.23 37.0196 154.83 37.5498 154.83 38.2554C154.83 38.961 154.23 39.4912 153.525 39.4912H150.49V60.4485C150.49 61.1892 149.889 61.7896 149.149 61.7896C148.408 61.7896 147.808 61.1892 147.808 60.4485H147.81Z" fill="white"/>
<path d="M160.618 39.5634V46.902H164.993C165.699 46.902 166.299 47.4322 166.299 48.1378C166.299 48.8434 165.699 49.3736 164.993 49.3736H160.618V60.4527C160.618 61.1933 160.017 61.7937 159.277 61.7937C158.536 61.7937 157.936 61.1933 157.936 60.4527V39.1426C157.936 37.6612 158.571 37.0258 160.087 37.0258H165.52C166.225 37.0258 166.826 37.5911 166.826 38.2967C166.826 39.0023 166.225 39.5676 165.52 39.5676H160.616L160.618 39.5634Z" fill="white"/>
<path d="M170.108 56.215V42.5962C170.108 39.0332 171.942 36.8112 175.4 36.8112C178.858 36.8112 180.692 39.0332 180.692 42.5962V56.215C180.692 59.778 178.858 62 175.4 62C171.942 62 170.108 59.778 170.108 56.215ZM178.01 55.757V43.0563C178.01 40.4093 177.092 39.3509 175.4 39.3509C173.708 39.3509 172.79 40.4093 172.79 43.0563V55.757C172.79 58.404 173.708 59.4623 175.4 59.4623C177.092 59.4623 178.01 58.404 178.01 55.757Z" fill="white"/>
<path d="M185.383 59.6026V38.2224C185.383 37.4817 185.984 36.8814 186.724 36.8814C187.465 36.8814 188.065 37.4817 188.065 38.2224V59.1797H192.722C193.498 59.1797 194.063 59.7099 194.063 60.4506C194.063 61.1913 193.498 61.7215 192.722 61.7215H187.535C186.019 61.7215 185.383 61.086 185.383 59.6047V59.6026Z" fill="white"/>
<path d="M197.449 60.4485V38.2224C197.449 37.4817 198.049 36.8814 198.79 36.8814C199.53 36.8814 200.131 37.4817 200.131 38.2224V60.4485C200.131 61.1892 199.53 61.7896 198.79 61.7896C198.049 61.7896 197.449 61.1892 197.449 60.4485Z" fill="white"/>
<path d="M205 56.215V42.5962C205 39.0332 206.834 36.8112 210.292 36.8112C213.749 36.8112 215.584 39.0332 215.584 42.5962V56.215C215.584 59.778 213.749 62 210.292 62C206.834 62 205 59.778 205 56.215ZM212.904 55.757V43.0563C212.904 40.4093 211.985 39.3509 210.294 39.3509C208.602 39.3509 207.684 40.4093 207.684 43.0563V55.757C207.684 58.404 208.602 59.4623 210.294 59.4623C211.985 59.4623 212.904 58.404 212.904 55.757Z" fill="white"/>
</g>
<defs>
<filter id="filter0_dd_18_50" x="0" y="0" width="231.584" height="82" filterUnits="userSpaceOnUse" color-interpolation-filters="sRGB">
<feFlood flood-opacity="0" result="BackgroundImageFix"/>
<feColorMatrix in="SourceAlpha" type="matrix" values="0 0 0 0 0 0 0 0 0 0 0 0 0 0 0 0 0 0 127 0" result="hardAlpha"/>
<feOffset dy="4"/>
<feGaussianBlur stdDeviation="8"/>
<feComposite in2="hardAlpha" operator="out"/>
<feColorMatrix type="matrix" values="0 0 0 0 0 0 0 0 0 0 0 0 0 0 0 0 0 0 0.5 0"/>
<feBlend mode="overlay" in2="BackgroundImageFix" result="effect1_dropShadow_18_50"/>
<feColorMatrix in="SourceAlpha" type="matrix" values="0 0 0 0 0 0 0 0 0 0 0 0 0 0 0 0 0 0 127 0" result="hardAlpha"/>
<feOffset dy="4"/>
<feGaussianBlur stdDeviation="2"/>
<feComposite in2="hardAlpha" operator="out"/>
<feColorMatrix type="matrix" values="0 0 0 0 0 0 0 0 0 0 0 0 0 0 0 0 0 0 0.1 0"/>
<feBlend mode="overlay" in2="effect1_dropShadow_18_50" result="effect2_dropShadow_18_50"/>
<feBlend mode="normal" in="SourceGraphic" in2="effect2_dropShadow_18_50" result="shape"/>
</filter>
</defs>
</svg>
