<svg width="249" height="300" viewBox="0 0 249 300" fill="none" xmlns="http://www.w3.org/2000/svg">
<path d="M147.978 224.033V292.698C147.978 296.555 144.956 299.868 141.099 299.934C137.242 300 133.962 296.841 133.962 292.929V226.429C133.962 225.94 134.308 225.516 134.791 225.418L146.747 223.022C147.385 222.896 147.978 223.385 147.978 224.033Z" fill="white"/>
<path d="M140.973 182.725C137.104 182.725 133.962 179.588 133.962 175.714V158.967C133.962 155.099 137.099 151.956 140.973 151.956C144.841 151.956 147.984 155.093 147.984 158.967V175.714C147.984 179.582 144.846 182.725 140.973 182.725Z" fill="white"/>
<path d="M7.01648 299.94C6.45604 299.94 5.88462 299.874 5.31319 299.731C1.56044 298.791 -0.725275 294.989 0.214286 291.231L31.7637 165.027C13.6154 161.022 0 144.808 0 125.478C0 121.61 3.13736 118.467 7.01099 118.467H53.1648C57.033 118.467 60.1758 121.604 60.1758 125.478C60.1758 129.352 57.0385 132.489 53.1648 132.489H14.9615C18.044 143.703 28.3242 151.962 40.5 151.962C42.6593 151.962 44.6978 152.956 46.022 154.659C47.3517 156.363 47.8187 158.577 47.2967 160.67L13.8077 294.632C13.011 297.819 10.1538 299.945 7.01099 299.945L7.01648 299.94Z" fill="white"/>
<path d="M98.6044 89.7363C95.9615 92.3352 92.6703 94.2747 88.989 95.2857C88.522 95.4176 88.0165 95.1703 87.8242 94.7253C86.1868 90.9286 85.2802 86.7472 85.2802 82.3571V40.7088C85.2802 37.2802 87.9615 34.3407 91.3901 34.2747C94.8846 34.2088 97.7417 37.0165 97.7417 40.5V82.3626C97.7417 84.5769 98.1264 86.7088 98.8297 88.6868C98.9615 89.0549 98.8846 89.467 98.6044 89.7418V89.7363Z" fill="white"/>
<path d="M123.637 7.0055V73.989C123.637 79.1209 122.659 84.2363 120.753 89C118.835 93.7802 116 98.1813 112.451 101.907C109.236 105.28 105.434 108.093 101.275 110.192C96.3572 112.676 90.9286 114.115 85.4286 114.423C84.6649 114.467 83.9011 114.489 83.1374 114.489C60.8077 114.489 42.6429 96.3187 42.6429 73.989V7.0055C42.6429 3.13736 45.7802 0 49.6484 0C53.522 0 56.6594 3.13736 56.6594 7.0055C56.6594 7.0055 56.6594 73.9835 56.6594 73.989C56.6594 78.0495 57.5989 82.0879 59.4066 85.7253C61.2143 89.3626 63.7088 92.3846 66.8077 94.8187C69.9066 97.2528 73.6319 99.0275 77.5275 99.8681C82.8077 101.011 88.4176 100.495 93.3956 98.3956C97.8297 96.5275 101.725 93.4231 104.555 89.5385C107.385 85.6539 109.242 80.6758 109.56 75.6978C109.599 75.1264 109.615 74.5549 109.615 73.9835V7.0055C109.621 3.13736 112.758 0 116.632 0C120.506 0 123.637 3.13736 123.637 7.0055Z" fill="white"/>
<path d="M147.978 40.4945V81.8791C147.978 99.1923 133.813 113.78 116.5 113.709C113.879 113.698 111.33 113.363 108.901 112.742C108.066 112.527 107.868 111.451 108.577 110.962C112.407 108.319 115.808 105.099 118.648 101.429C118.808 101.225 119.033 101.093 119.291 101.06C128.451 99.7692 135.522 91.8736 135.522 82.3571V40.7088C135.522 37.2802 138.203 34.3407 141.632 34.2747C145.126 34.2088 147.984 37.0165 147.984 40.5L147.978 40.4945Z" fill="white"/>
<path d="M248.451 175.714C248.451 188.747 239.176 200.06 226.396 202.615L75.3626 232.824C74.9011 232.918 74.4396 232.962 73.9835 232.962C70.7088 232.962 67.7857 230.659 67.1154 227.324C66.3571 223.527 68.8187 219.835 72.6154 219.077L148.407 203.918L223.648 188.874C229.896 187.621 234.434 182.088 234.434 175.714C234.434 169.341 229.896 163.808 223.648 162.56L72.6154 132.352C68.8187 131.593 66.3571 127.901 67.1154 124.104C67.8736 120.308 71.5714 117.846 75.3626 118.61L226.396 148.813C239.176 151.368 248.451 162.681 248.451 175.714Z" fill="white"/>
</svg>
